# xmcd
#
# Track frame offsets:
#	150
#	9783
#	22567
#	43933
#	57287
#	70871
#	80723
#	90527
#	102695
#	115892
#	124074
#
# Disc length: 1839 seconds
#
# Revision: 1
# Processed by: cddbd v1.5.2PL0 Copyright (c) Steve Scherf et al.
# Submitted via: audiograbber 1.83.01
#
DISCID=86072d0b
DTITLE=Johnny Cash  - Everybody Loves A Nut
DYEAR=1966
DGENRE=Country
TTITLE0=Everybody Loves A Nut
TTITLE1=The One On The RIght Is On The Left
TTITLE2=A Cup Of Coffee
TTITLE3=A Big That Tried To Crawl Around The World
TTITLE4=The Singing Star's Queen
TTITLE5=Austin Prison
TTITLE6=Dirty Old Egg-Sucking Dog
TTITLE7=Take Me Home
TTITLE8=Please Don't Play Red River Valley
TTITLE9=Boa Constrictor
TTITLE10=Joe Bean
EXTD=
EXTT0=
EXTT1=
EXTT2=
EXTT3=
EXTT4=
EXTT5=
EXTT6=
EXTT7=
EXTT8=
EXTT9=
EXTT10=
PLAYORDER=
